<?xml version="1.0" encoding="utf-8"?>
<!-- Generator: Adobe Illustrator 27.1.1, SVG Export Plug-In . SVG Version: 6.00 Build 0)  -->
<svg version="1.1" id="Layer_1" xmlns="http://www.w3.org/2000/svg" xmlns:xlink="http://www.w3.org/1999/xlink" x="0px" y="0px"
	 viewBox="0 0 508 508" style="enable-background:new 0 0 508 508;" xml:space="preserve">
<style type="text/css">
	.st0{fill:url(#SVGID_1_);}
	.st1{fill:#FEF6E0;}
	.st2{fill:#742E9C;}
	.st3{display:none;}
	.st4{display:inline;fill:#FFFFFF;}
	.st5{display:none;fill:#080000;}
	.st6{display:inline;fill:#324A5E;}
	.st7{display:none;fill:#FFFFFF;}
	.st8{fill:#CBE6F8;stroke:#000000;stroke-width:4;stroke-miterlimit:10;}
	.st9{fill:url(#SVGID_00000119104758291640411370000006747330714036530331_);}
	.st10{fill:#03001A;}
	.st11{fill:#491E63;}
</style>
<linearGradient id="SVGID_1_" gradientUnits="userSpaceOnUse" x1="30.5394" y1="107.6412" x2="454.6754" y2="387.3374">
	<stop  offset="0" style="stop-color:#2C0026"/>
	<stop  offset="0.8384" style="stop-color:#13111C"/>
</linearGradient>
<circle class="st0" cx="252.5" cy="254" r="254"/>
<path class="st1" d="M311.2,317.1c0,0,0,0,0,0.4c0,4-2,29.6-56,50h-2.4c-54-20.4-56-46-56-50c0-0.4,0-0.4,0-0.4c0-2.9,1-8.7,1-8.7
	c14.4,19.1,34.4,35.2,57.7,35.1c33.2-1,55.1-33.7,54.5-36.1C311.3,312.6,311.2,311.9,311.2,317.1z"/>
<g>
	<path class="st2" d="M255.2,367.9c-0.4,0-0.8,0.4-1.2,0.4s-0.8-0.4-1.2-0.4H255.2z"/>
	<path class="st2" d="M448.7,415.3C402.3,472.5,332.1,508,252.5,508s-149.3-34.9-195.7-92.1c7.3-21.5,16-55.3,38.1-72.4
		c28.5-22,78.5-20.3,101.9-26.4c1.8,26.8,38.9,43.8,52.4,49c3.1,1.2,6.5,1.2,9.6,0c13.6-5.3,51.5-22.5,52.4-49
		c22.7,5.8,78.3,5.5,105.9,26.4C440.4,361.2,443.2,394.5,448.7,415.3z"/>
</g>
<g class="st3">
	<path class="st4" d="M338,215.9c-3.6,24.8-14.4,48-32.4,65.6c-3.6,3.6-6.8,6.4-10.8,9.2l-6.4-20.4h-68.8l-6.4,20.4
		c-12.8-9.6-39.6-36.4-40-61.6C162,85.5,272,115.9,272,115.9C346,110.7,343.6,175.9,338,215.9z"/>
	<path class="st4" d="M352.8,241.9c-5.6,9.2-13.2,15.6-20.4,18c2.8-6.4,5.2-13.2,7.2-20c0,0,0,0,0-0.4c1.6-6,3.2-12,4.8-18H344
		c1.6-6,3.2-12,4.4-18c1.6,0,3.2,0.8,4.8,1.6C362,210.7,361.6,227.1,352.8,241.9z"/>
	<path class="st4" d="M175.6,259.9c-7.2-2.4-14.8-8.8-20.4-18c-9.2-14.8-9.2-31.2-0.4-36.4c0.8-0.4,1.2-0.8,2-0.8
		c4.8,18.8,10.4,32.8,11.6,35.6C170.4,246.7,172.8,253.5,175.6,259.9z"/>
</g>
<path id="SVGCleanerId_0_00000173132217480446399490000013236832929580943759_" class="st5" d="M297.6,75.9
	c3.2-36.8-55.2-34.4-55.2-34.4c-88.4,12.8-98,95.2-98,95.2l12-14.4c-18.8,41.2,9.6,112,12,117.6c14.8,49.2,47.6,94.4,85.6,94.4
	s70.8-45.2,85.6-94.4l0,0c0,0,0,0,0-0.4c1.6-6,3.2-12,4.4-18h-0.4c8-32,16.8-64.4,16.8-64.4C383.2,42.3,297.6,75.9,297.6,75.9z
	 M338,215.9c-3.6,24.8-14.4,48-32.4,65.6c-3.6,3.6-7.2,6.4-10.8,9.2l-6.4-20h-68.8l-6.4,20.4c-12.8-9.6-23.6-22.8-32.4-38
	c-4-8-6.4-16.4-7.6-23.6C162,85.9,272,116.3,272,116.3C346,110.7,343.6,175.9,338,215.9z"/>
<g class="st3">
	<path id="SVGCleanerId_0_00000003814533883157209190000014707282465782542773_" class="st6" d="M297.6,75.9
		c3.2-36.8-55.2-34.4-55.2-34.4c-88.4,12.8-98,95.2-98,95.2l12-14.4c-18.8,41.2,9.6,112,12,117.6c14.8,49.2,47.6,94.4,85.6,94.4
		s70.8-45.2,85.6-94.4l0,0c0,0,0,0,0-0.4c1.6-6,3.2-12,4.4-18h-0.4c8-32,16.8-64.4,16.8-64.4C383.2,42.3,297.6,75.9,297.6,75.9z
		 M338,215.9c-3.6,24.8-14.4,48-32.4,65.6c-3.6,3.6-7.2,6.4-10.8,9.2l-6.4-20h-68.8l-6.4,20.4c-12.8-9.6-23.6-22.8-32.4-38
		c-4-8-6.4-16.4-7.6-23.6C162,85.9,272,116.3,272,116.3C346,110.7,343.6,175.9,338,215.9z"/>
</g>
<path class="st7" d="M226,284.3c6.8,7.6,16.8,12.8,28,12.8c11.2,0,21.2-4.8,28-12.8H226z"/>
<path class="st1" d="M254.3,132.7c8.3-3.4,36.3-11,59.9,3.2c31.9,19.3,29.3,66.3,27.5,86.6c-0.8,9.8-4.4,44.8-27.3,76
	c-13.6,18.5-30.1,37.5-55.3,39c-30.8,1.8-60.5-29.5-68-39.7c-18.6-25.3-20-49.7-21.9-72c-2.7-33,0.3-75.1,25.9-92.3
	C215.6,119.9,243.6,128.7,254.3,132.7z"/>
<g id="Layer_2">
	<path class="st8" d="M243.5,216.6c0,0,8-7.9,21.7,1c0,0,3.9-14.1,18.6-15.4c0,0,20.8-2.7,33.7,0c0,0,13.6,0.5,15.1,16.3
		c0,0,2.8,10.1-4.6,25c0,0-4.2,12.9-32.8,15.5c0,0-14.5,2-20.9-9.8c-6.4-11.8-6.2-14.8-7-17.8c-0.9-3.6-2-9.9-2-9.9
		s-0.3-4.4-4.5-5.7c-4.3-1.3-11.3-3.5-17.5,1.8L243.5,216.6z"/>
	
		<linearGradient id="SVGID_00000049923259297535907600000006931799873094053536_" gradientUnits="userSpaceOnUse" x1="398.2957" y1="194.0521" x2="398.2957" y2="194.0521">
		<stop  offset="0" style="stop-color:#470055"/>
		<stop  offset="0" style="stop-color:#000202"/>
	</linearGradient>
	<path style="fill:url(#SVGID_00000049923259297535907600000006931799873094053536_);" d="M398.3,194.1"/>
	<path class="st8" d="M242.5,216.3c0,0-3.9-14.1-18.6-15.4c0,0-20.8-2.7-33.7,0c0,0-13.6,0.5-15.1,16.3c0,0-2.8,10.1,4.6,25
		c0,0,4.2,12.9,32.8,15.5c0,0,14.5,2,20.9-9.8s6.2-14.8,7-17.8c0.9-3.6,1.5-8.9,1.5-8.9S242,220.3,242.5,216.3z"/>
</g>
<path class="st1" d="M169.4,205.7c0.2-7.1-10.7-14.7-16.4-12.2c-1.9,0.8-2.9,2.8-3.4,4.2c-6.7,17,10.7,49.3,16.8,47.9
	c1.3-0.3,4.7-2.7,4.7-2.7c-3.8-28-1.9-36.3-1.9-36.3C169.4,205.7,169.4,205.7,169.4,205.7z"/>
<path class="st1" d="M341.9,203.6c0.1-7.1,11.2-14.4,16.8-11.7c1.9,0.9,2.8,2.9,3.3,4.3c6.2,17.2-12.3,49-18.4,47.3
	c-1.3-0.4-4.6-2.9-4.6-2.9c4.7-27.8,3.1-36.2,3.1-36.2C341.9,203.6,341.9,203.6,341.9,203.6z"/>
<path class="st10" d="M254.3,132.5c0,0,7-3.1,16.2-4c16.5-1.5,29.4,85.7,29.4,85.7s7.2-14.4,6.6-29.6l13.4,27.5
	c0,0,16.4,1,22.6-11.3c7-11.7,28.3-56.6,6.5-88.1c-7.3-10.6-17.4-13.8-22.6-19.5c-5.9-6.7-3.9-13.6-20.2-22.4
	c-19.9-5.9-37.7,1.5-46.2,12.1C247.6,98.5,254.3,132.5,254.3,132.5z"/>
<path class="st10" d="M254.3,132.5c0,0-7-3.1-16.2-4c-16.5-1.5-29.4,85.7-29.4,85.7s-7.2-14.4-6.6-29.6l-13.4,27.5
	c0,0-3.9,0.2-8.6-0.9c-4.9-1.2-10.8-4-14-10.3c-7-11.7-28.3-56.6-6.5-88.1c7.3-10.6,17.4-13.8,22.6-19.5c5.9-6.7,3.9-13.6,20.2-22.4
	c19.9-5.9,37.7,1.5,46.2,12.1C260.9,98.5,254.3,132.5,254.3,132.5z"/>
<path class="st11" d="M246.1,376.8c-18-7.1-59.5-28.7-59.5-57.7l10.2-2c0,0-0.6,32.8,58.4,50.4c0,0,55.5-19.9,56-50.4l9.7,1.9
	c0,0,0,36.2-58.6,58.9C256.4,380.2,252,379.1,246.1,376.8z"/>
</svg>
